# xmcd
#
# Track frame offsets:
#	183
#	13095
#	24655
#	35883
#
# Disc length: 652 seconds
#
# Revision: 0
# Processed by: cddbd v1.4PL0 Copyright (c) Steve Scherf et al.
# Submitted via: EasyCDDAExtractor 4.6.0.1
#
DISCID=2e028a04
DTITLE=Lee Dorsey - The Charly Origionals
DYEAR=1900
DGENRE=Blues
TTITLE0=Working in a Coalmine
TTITLE1=Holy Cow
TTITLE2=Get Out of My Life Woman
TTITLE3=Ride Your Pony
EXTD=
EXTT0=
EXTT1=
EXTT2=
EXTT3=
PLAYORDER=
